<?xml version="1.0" encoding="utf-8"?>
<svg width="460px" height="460px" viewBox="0 0 460 460" version="1.1" xmlns:xlink="http://www.w3.org/1999/xlink" xmlns="http://www.w3.org/2000/svg">
  <g id="Group">
    <path d="M0 198C0 88.6476 88.6476 0 198 0C307.352 0 396 88.6476 396 198C396 307.352 307.352 396 198 396C88.6476 396 0 307.352 0 198Z" transform="translate(31.890259 31.807068)" id="Ellipse" fill="#D3D3D3" fill-rule="evenodd" stroke="none" />
    <path d="M207.5 1.32611C191.3 3.22611 183.1 4.82611 181.5 6.5261C180.4 7.5261 180 10.2261 180 15.8261L180 23.7261L175.8 24.8261C164.2 27.7261 148 34.0261 134.6 40.6261L119.8 48.0261L114.6 42.9261C107.6 35.9261 105.9 36.1261 94.7 44.4261C76.1 58.4261 58.3 76.2261 43.9 95.4261C36.4 105.526 36.3 107.226 43.1 114.326L48.2 119.726L40.7 135.026C33.8 148.926 27.9 164.226 25 175.526L23.9 179.826L16 179.826C10.4 179.826 7.7 180.226 6.7 181.326C4.1 183.826 0 213.826 0 229.826C0 245.926 4.2 275.826 6.7 278.326C7.7 279.426 10.4 279.826 16 279.826L23.9 279.826L25 284.026C27.9 295.426 33.8 310.726 40.7 324.626L48.2 339.926L43.1 345.326C36.3 352.426 36.4 354.126 43.9 364.226C58.3 383.426 76.1 401.226 94.7 415.226C105.9 423.526 107.6 423.726 114.6 416.726L119.8 411.526L135.2 419.126C149.1 426.026 164.4 431.926 175.8 434.826L180 435.926L180 443.826C180 449.426 180.4 452.126 181.5 453.126C184 455.726 214 459.826 230 459.826C246 459.826 276 455.726 278.5 453.126C279.6 452.126 280 449.426 280 443.826L280 435.926L284.3 434.826C295.6 431.926 310.9 426.026 324.8 419.126L340.2 411.526L345.4 416.726C352.4 423.626 354.2 423.526 365 415.426C383.8 401.526 401.8 383.526 415.7 364.826C423.7 354.026 423.8 352.226 416.9 345.226L411.7 340.026L419.3 324.626C426.2 310.726 432.1 295.426 435 284.026L436.1 279.826L444 279.826C449.6 279.826 452.3 279.426 453.3 278.326C455.9 275.826 460 245.826 460 229.826C460 213.826 455.9 183.826 453.3 181.326C452.3 180.226 449.6 179.826 444 179.826L436.1 179.826L435 175.526C432.1 164.226 426.2 148.926 419.3 135.026L411.7 119.626L416.9 114.426C423.8 107.426 423.7 105.626 415.7 94.8261C401.8 76.1261 383.8 58.1261 365 44.2261C354.2 36.1261 352.4 36.0261 345.4 42.9261L340.2 48.0261L325.4 40.6261C312 34.0261 295.8 27.7261 284.3 24.8261L280 23.7261L280 15.8261C280 10.2261 279.6 7.5261 278.5 6.5261C276.8 4.82611 268.6 3.22611 251 1.22611C236.1 -0.473904 222.4 -0.373898 207.5 1.32611L207.5 1.32611ZM220 61.8261C222.6 64.4261 222.5 66.3261 219.9 68.9261C218.5 70.3261 217.1 70.8261 215.4 70.4261C212.4 69.6261 209.5 72.3261 206.8 78.5261C205.3 81.8261 204.7 86.1261 204.3 95.9261C203.7 107.926 203.6 108.826 201.7 108.826C199.9 108.826 199.8 108.226 200.2 95.0261C200.5 82.4261 200.8 80.8261 203.3 75.6261C204.9 72.4261 207.2 69.0261 208.6 67.9261C209.9 66.9261 211 65.5261 211 64.9261C211 63.3261 214.8 59.8261 216.5 59.8261C217.3 59.8261 218.9 60.7261 220 61.8261L220 61.8261ZM245.5 61.5261C257.7 75.7261 258.4 77.5261 258.8 95.0261C259.2 108.226 259.1 108.826 257.2 108.826C255.4 108.826 255.2 107.826 254.7 95.5261C254.2 81.8261 253.2 77.8261 249 72.5261C247.2 70.3261 246.2 69.8261 244.1 70.3261C240.6 71.1261 237.8 68.9261 237.8 65.3261C237.8 60.6261 242.6 58.2261 245.5 61.5261L245.5 61.5261ZM206.2 122.126C206.5 131.126 206.9 132.926 209.3 137.126C210.9 139.726 214 143.126 216.2 144.626C220 147.026 221.2 147.326 229.6 147.326C238.3 147.326 239.1 147.126 243.2 144.326C250 139.426 252.4 134.226 253 122.326L253.5 112.326L257.3 112.026L261 111.726L261 120.126C261 138.826 253.6 150.126 238.3 154.726C232.8 156.426 232.5 156.626 232.8 159.426C232.9 161.026 233.2 174.926 233.3 190.326C233.5 221.826 233.5 221.826 241.4 229.126L245.5 232.926L243.1 234.826L240.8 236.826L244.6 238.526C247.2 239.726 251.2 240.226 256.5 240.326C266.3 240.326 272 237.826 278.6 230.526C284.1 224.426 286.3 217.626 285.4 209.726L284.8 204.026L288.4 202.326C292.2 200.526 296 194.826 296 190.826C296 187.826 293.5 183.326 290.4 180.926C288.5 179.426 286.3 178.826 282.9 178.826C269.3 178.826 265.2 197.226 277.7 202.426C281.2 203.926 281.3 204.026 280.7 208.626C279.6 217.526 277.2 223.426 272.9 227.726C267.9 232.626 260.1 235.326 253.7 234.426C246.3 233.326 246.4 232.426 254.2 228.226L261.5 224.326L261.8 187.026C261.9 166.626 262.3 149.826 262.5 149.826C262.8 149.826 267.4 152.426 272.8 155.626C278.1 158.826 286.9 163.826 292.3 166.826L302 172.126L302 215.226L302 258.326L282.7 269.326L263.5 280.426L263 328.326C262.4 380.926 262.6 379.826 256.1 389.126C242.9 408.326 212.7 407.726 200.2 388.126C194.1 378.526 194 377.126 194 326.326L194 280.126L175 269.226L156 258.326L156 215.326L156.1 172.326L175.2 161.326C185.7 155.226 194.7 150.226 195.1 150.026C195.6 149.826 196.1 166.426 196.2 187.026L196.5 224.326L212.8 233.126L229.1 241.926L234.6 238.726L240.1 235.626L236.2 232.226C234 230.426 231.2 226.526 229.9 223.626C227.6 218.426 227.5 217.626 227.5 191.826C227.5 177.226 227.1 163.226 226.7 160.726C225.8 156.326 225.7 156.126 220.4 154.526C205.6 149.926 199.1 140.326 198.2 121.526L197.8 111.826L201.8 111.826L205.8 111.826L206.2 122.126L206.2 122.126ZM287.8 185.826C292.3 190.026 289.3 198.126 283.2 198.126C278.9 198.126 276 195.326 276 191.226C276 187.226 279.2 183.826 283 183.826C284.4 183.826 286.6 184.726 287.8 185.826L287.8 185.826Z" id="Shape" fill="#000000" fill-rule="evenodd" stroke="none" />
    <path d="M0.846497 1.5C-1.75351 4.69998 2.14652 9.60001 5.64651 7.39999C9.04651 5.19998 7.8465 0 3.8465 0C2.8465 0 1.54651 0.699982 0.846497 1.5L0.846497 1.5Z" transform="translate(279.15344 186.82611)" id="Shape" fill="#000000" fill-rule="evenodd" stroke="none" />
  </g>
</svg>